<mxfile host="app.diagrams.net" modified="2022-05-06T13:21:33.802Z" agent="5.0 (Windows NT 10.0; Win64; x64) AppleWebKit/537.36 (KHTML, like Gecko) Chrome/101.0.4951.41 Safari/537.36 Edg/101.0.1210.32" etag="l7aejh1ZNtBJv8VzIiTY" version="18.0.0" type="github">
  <diagram id="bAbn8hl5mbLafxKMVpMg" name="Page-1">
    <mxGraphModel dx="1038" dy="579" grid="1" gridSize="10" guides="1" tooltips="1" connect="1" arrows="1" fold="1" page="1" pageScale="1" pageWidth="850" pageHeight="1100" math="0" shadow="0">
      <root>
        <mxCell id="0" />
        <mxCell id="1" parent="0" />
        <mxCell id="crel0HZ4IlPv2Bj97w2c-12" value="" style="edgeStyle=orthogonalEdgeStyle;rounded=0;orthogonalLoop=1;jettySize=auto;html=1;" parent="1" source="p3mFZ6XsDzNMiNJtrRee-1" target="crel0HZ4IlPv2Bj97w2c-11" edge="1">
          <mxGeometry relative="1" as="geometry" />
        </mxCell>
        <mxCell id="p3mFZ6XsDzNMiNJtrRee-1" value="calculate the goal distance vector" style="whiteSpace=wrap;html=1;rounded=0;" parent="1" vertex="1">
          <mxGeometry x="30" y="310" width="120" height="60" as="geometry" />
        </mxCell>
        <mxCell id="crel0HZ4IlPv2Bj97w2c-18" value="no" style="edgeStyle=orthogonalEdgeStyle;rounded=0;orthogonalLoop=1;jettySize=auto;html=1;" parent="1" source="p3mFZ6XsDzNMiNJtrRee-6" target="p3mFZ6XsDzNMiNJtrRee-9" edge="1">
          <mxGeometry relative="1" as="geometry" />
        </mxCell>
        <mxCell id="p3mFZ6XsDzNMiNJtrRee-6" value="IF target distance &amp;gt; 1" style="rhombus;whiteSpace=wrap;html=1;rounded=0;" parent="1" vertex="1">
          <mxGeometry x="50" y="500" width="80" height="80" as="geometry" />
        </mxCell>
        <mxCell id="p3mFZ6XsDzNMiNJtrRee-7" value="yes" style="edgeStyle=orthogonalEdgeStyle;rounded=0;orthogonalLoop=1;jettySize=auto;html=1;" parent="1" source="p3mFZ6XsDzNMiNJtrRee-6" target="p3mFZ6XsDzNMiNJtrRee-8" edge="1">
          <mxGeometry relative="1" as="geometry" />
        </mxCell>
        <mxCell id="p3mFZ6XsDzNMiNJtrRee-8" value="goal vector normalize" style="rounded=1;whiteSpace=wrap;html=1;fillColor=#ffcc99;strokeColor=#36393d;" parent="1" vertex="1">
          <mxGeometry x="195" y="510" width="120" height="60" as="geometry" />
        </mxCell>
        <mxCell id="crel0HZ4IlPv2Bj97w2c-20" value="" style="edgeStyle=orthogonalEdgeStyle;rounded=0;orthogonalLoop=1;jettySize=auto;html=1;" parent="1" source="p3mFZ6XsDzNMiNJtrRee-9" edge="1">
          <mxGeometry relative="1" as="geometry">
            <mxPoint x="170" y="660" as="targetPoint" />
          </mxGeometry>
        </mxCell>
        <mxCell id="p3mFZ6XsDzNMiNJtrRee-9" value="ELSE" style="rhombus;whiteSpace=wrap;html=1;rounded=0;" parent="1" vertex="1">
          <mxGeometry x="50" y="620" width="80" height="80" as="geometry" />
        </mxCell>
        <mxCell id="crel0HZ4IlPv2Bj97w2c-4" value="" style="edgeStyle=orthogonalEdgeStyle;rounded=0;orthogonalLoop=1;jettySize=auto;html=1;" parent="1" source="crel0HZ4IlPv2Bj97w2c-5" target="crel0HZ4IlPv2Bj97w2c-6" edge="1">
          <mxGeometry relative="1" as="geometry" />
        </mxCell>
        <mxCell id="crel0HZ4IlPv2Bj97w2c-5" value="start" style="rounded=1;whiteSpace=wrap;html=1;" parent="1" vertex="1">
          <mxGeometry x="45" y="40" width="90" height="20" as="geometry" />
        </mxCell>
        <mxCell id="crel0HZ4IlPv2Bj97w2c-8" value="" style="edgeStyle=orthogonalEdgeStyle;rounded=0;orthogonalLoop=1;jettySize=auto;html=1;" parent="1" source="crel0HZ4IlPv2Bj97w2c-6" target="crel0HZ4IlPv2Bj97w2c-7" edge="1">
          <mxGeometry relative="1" as="geometry" />
        </mxCell>
        <mxCell id="crel0HZ4IlPv2Bj97w2c-6" value="get the agent id and initialize the position&lt;br&gt;array" style="rounded=0;whiteSpace=wrap;html=1;" parent="1" vertex="1">
          <mxGeometry x="30" y="100" width="120" height="60" as="geometry" />
        </mxCell>
        <mxCell id="crel0HZ4IlPv2Bj97w2c-9" value="" style="edgeStyle=orthogonalEdgeStyle;rounded=0;orthogonalLoop=1;jettySize=auto;html=1;" parent="1" source="crel0HZ4IlPv2Bj97w2c-7" target="p3mFZ6XsDzNMiNJtrRee-1" edge="1">
          <mxGeometry relative="1" as="geometry" />
        </mxCell>
        <mxCell id="crel0HZ4IlPv2Bj97w2c-7" value="IF props not&amp;nbsp; &amp;nbsp;rest agent" style="rhombus;whiteSpace=wrap;html=1;" parent="1" vertex="1">
          <mxGeometry x="50" y="200" width="80" height="80" as="geometry" />
        </mxCell>
        <mxCell id="crel0HZ4IlPv2Bj97w2c-17" value="" style="edgeStyle=orthogonalEdgeStyle;rounded=0;orthogonalLoop=1;jettySize=auto;html=1;" parent="1" source="crel0HZ4IlPv2Bj97w2c-11" target="p3mFZ6XsDzNMiNJtrRee-6" edge="1">
          <mxGeometry relative="1" as="geometry" />
        </mxCell>
        <mxCell id="crel0HZ4IlPv2Bj97w2c-11" value="construct the current position object" style="whiteSpace=wrap;html=1;rounded=0;" parent="1" vertex="1">
          <mxGeometry x="30" y="400" width="120" height="60" as="geometry" />
        </mxCell>
        <mxCell id="GwzCm5ADjuFJXymMkZLK-3" value="" style="edgeStyle=orthogonalEdgeStyle;rounded=0;orthogonalLoop=1;jettySize=auto;html=1;" edge="1" parent="1" source="GwzCm5ADjuFJXymMkZLK-1" target="GwzCm5ADjuFJXymMkZLK-2">
          <mxGeometry relative="1" as="geometry">
            <Array as="points">
              <mxPoint x="350" y="660" />
              <mxPoint x="350" y="110" />
            </Array>
          </mxGeometry>
        </mxCell>
        <mxCell id="GwzCm5ADjuFJXymMkZLK-1" value="user console" style="rounded=0;whiteSpace=wrap;html=1;" vertex="1" parent="1">
          <mxGeometry x="170" y="630" width="120" height="60" as="geometry" />
        </mxCell>
        <mxCell id="GwzCm5ADjuFJXymMkZLK-6" value="" style="edgeStyle=orthogonalEdgeStyle;rounded=0;orthogonalLoop=1;jettySize=auto;html=1;" edge="1" parent="1" source="GwzCm5ADjuFJXymMkZLK-2" target="GwzCm5ADjuFJXymMkZLK-4">
          <mxGeometry relative="1" as="geometry" />
        </mxCell>
        <mxCell id="GwzCm5ADjuFJXymMkZLK-2" value="construct the truck position array" style="whiteSpace=wrap;html=1;rounded=0;" vertex="1" parent="1">
          <mxGeometry x="380" y="80" width="120" height="60" as="geometry" />
        </mxCell>
        <mxCell id="GwzCm5ADjuFJXymMkZLK-7" value="" style="edgeStyle=orthogonalEdgeStyle;rounded=0;orthogonalLoop=1;jettySize=auto;html=1;" edge="1" parent="1" source="GwzCm5ADjuFJXymMkZLK-4" target="GwzCm5ADjuFJXymMkZLK-5">
          <mxGeometry relative="1" as="geometry" />
        </mxCell>
        <mxCell id="GwzCm5ADjuFJXymMkZLK-4" value="call&amp;nbsp;setAgentPref&lt;br&gt;Velocity" style="rounded=1;whiteSpace=wrap;html=1;fillColor=#ffcc99;strokeColor=#36393d;" vertex="1" parent="1">
          <mxGeometry x="380" y="170" width="120" height="60" as="geometry" />
        </mxCell>
        <mxCell id="GwzCm5ADjuFJXymMkZLK-9" value="" style="edgeStyle=orthogonalEdgeStyle;rounded=0;orthogonalLoop=1;jettySize=auto;html=1;" edge="1" parent="1" source="GwzCm5ADjuFJXymMkZLK-5" target="GwzCm5ADjuFJXymMkZLK-8">
          <mxGeometry relative="1" as="geometry" />
        </mxCell>
        <mxCell id="GwzCm5ADjuFJXymMkZLK-5" value="set agent position with y =0" style="rounded=1;whiteSpace=wrap;html=1;fillColor=#ffcc99;strokeColor=#36393d;" vertex="1" parent="1">
          <mxGeometry x="380" y="270" width="120" height="60" as="geometry" />
        </mxCell>
        <mxCell id="GwzCm5ADjuFJXymMkZLK-11" value="" style="edgeStyle=orthogonalEdgeStyle;rounded=0;orthogonalLoop=1;jettySize=auto;html=1;" edge="1" parent="1" source="GwzCm5ADjuFJXymMkZLK-8" target="GwzCm5ADjuFJXymMkZLK-10">
          <mxGeometry relative="1" as="geometry" />
        </mxCell>
        <mxCell id="GwzCm5ADjuFJXymMkZLK-8" value="return positon" style="rounded=0;whiteSpace=wrap;html=1;" vertex="1" parent="1">
          <mxGeometry x="380" y="360" width="120" height="60" as="geometry" />
        </mxCell>
        <mxCell id="GwzCm5ADjuFJXymMkZLK-10" value="end" style="ellipse;whiteSpace=wrap;html=1;rounded=0;" vertex="1" parent="1">
          <mxGeometry x="380" y="470" width="120" height="60" as="geometry" />
        </mxCell>
      </root>
    </mxGraphModel>
  </diagram>
</mxfile>
